<svg xmlns="http://www.w3.org/2000/svg" xmlns:xlink="http://www.w3.org/1999/xlink" viewBox="0 0 608.92 155.06"><defs><style>.cls-1{fill:url(#linear-gradient);}.cls-2{fill:url(#linear-gradient-2);}.cls-3{fill:url(#linear-gradient-3);}.cls-4{fill:url(#linear-gradient-4);}.cls-5{fill:url(#linear-gradient-5);}.cls-6{fill:url(#linear-gradient-6);}.cls-7{fill:url(#linear-gradient-7);}.cls-8{fill:url(#linear-gradient-8);}.cls-9{fill:url(#linear-gradient-9);}.cls-10{fill:url(#linear-gradient-10);}.cls-11{fill:url(#linear-gradient-11);}.cls-12{fill:url(#linear-gradient-12);}</style><linearGradient id="linear-gradient" y1="46.47" x2="130.19" y2="46.47" gradientUnits="userSpaceOnUse"><stop offset="0" stop-color="#4822ad"/><stop offset="0.35" stop-color="#5f28aa"/><stop offset="0.57" stop-color="#7a2aa7"/><stop offset="1" stop-color="#7a2aa7"/></linearGradient><linearGradient id="linear-gradient-2" x1="48.68" y1="121.25" x2="80.9" y2="121.25" xlink:href="#linear-gradient"/><linearGradient id="linear-gradient-3" x1="478.73" y1="45.28" x2="608.92" y2="45.28" xlink:href="#linear-gradient"/><linearGradient id="linear-gradient-4" x1="527.4" y1="120.06" x2="559.62" y2="120.06" xlink:href="#linear-gradient"/><linearGradient id="linear-gradient-5" x1="133.88" y1="77.58" x2="282.2" y2="77.58" xlink:href="#linear-gradient"/><linearGradient id="linear-gradient-6" x1="136.75" y1="78.94" x2="163.44" y2="78.94" xlink:href="#linear-gradient"/><linearGradient id="linear-gradient-7" x1="300.92" y1="102.26" x2="332.72" y2="102.26" xlink:href="#linear-gradient"/><linearGradient id="linear-gradient-8" x1="328.44" y1="51.01" x2="329.7" y2="51.01" xlink:href="#linear-gradient"/><linearGradient id="linear-gradient-9" x1="432.54" y1="102.32" x2="464.33" y2="102.32" xlink:href="#linear-gradient"/><linearGradient id="linear-gradient-10" x1="300.24" y1="47.75" x2="397.47" y2="47.75" xlink:href="#linear-gradient"/><linearGradient id="linear-gradient-11" x1="368.1" y1="47.75" x2="465.32" y2="47.75" xlink:href="#linear-gradient"/><linearGradient id="linear-gradient-12" x1="329.75" y1="51.7" x2="329.84" y2="51.7" xlink:href="#linear-gradient"/></defs><g id="Layer_2" data-name="Layer 2"><g id="TEXT"><path class="cls-1" d="M126.47,27.83l-47.87,58a16.26,16.26,0,0,1-13.5,5.89,16.24,16.24,0,0,1-13.5-5.89l-47.87-58A16.28,16.28,0,0,1,28.84,7.1L65.1,51,101.35,7.1a16.28,16.28,0,0,1,25.12,20.73Z"/><path class="cls-2" d="M80.9,87.44V139a16.11,16.11,0,1,1-32.22,0V87.44S55,95.71,64.79,95.62C64.79,95.62,76.58,96.32,80.9,87.44Z"/><path class="cls-3" d="M605.19,26.64l-47.87,58a18.42,18.42,0,0,1-27,0l-47.87-58A16.28,16.28,0,0,1,507.56,5.91l36.26,43.94L580.07,5.91a16.28,16.28,0,0,1,25.12,20.73Z"/><path class="cls-4" d="M559.62,86.25v51.51a16.11,16.11,0,0,1-32.22,0V86.25s6.33,8.27,16.11,8.18C543.51,94.43,555.3,95.13,559.62,86.25Z"/><path class="cls-5" d="M207.94,1.29c-39.3,0-71.45,31.37-74.06,71.07A17.34,17.34,0,0,1,166.09,72C168.75,50.3,186.48,33.57,208,33.57c23.33,0,42.24,19.71,42.24,44s-18.91,44-42.24,44c-20.68,0-37.87-15.49-41.51-35.94A17.33,17.33,0,0,1,134.27,87c4.54,37.67,35.78,66.84,73.67,66.84,41,0,74.26-34.16,74.26-76.29S249,1.29,207.94,1.29Z"/><circle class="cls-6" cx="150.1" cy="78.94" r="13.35"/><rect class="cls-7" x="300.92" y="50.65" width="31.8" height="103.22" rx="15.9"/><path class="cls-8" d="M329.7,51.6l-1.26-1.17a10.45,10.45,0,0,1,1.16,1.06Z"/><rect class="cls-9" x="432.54" y="50.76" width="31.8" height="103.11" rx="15.9"/><path class="cls-10" d="M393.19,89.18a15.91,15.91,0,0,1-22.47.76L329.8,51.7s0,0-.05-.05l-.05,0-.1-.11a10.45,10.45,0,0,0-1.16-1.06h0c-1.9-1.51-5.73-3.72-11.94-3.77-9.48-.08-16.25,10.68-16.25,10.68V17.19A15.91,15.91,0,0,1,327,5.57l65.43,61.14A15.91,15.91,0,0,1,393.19,89.18Z"/><path class="cls-11" d="M372.37,89.18a15.91,15.91,0,0,0,22.47.76L435.76,51.7l.05-.05.05,0,.1-.11a10.45,10.45,0,0,1,1.16-1.06h0c1.9-1.51,5.73-3.72,11.94-3.77,9.48-.08,16.25,10.68,16.25,10.68V17.19A15.91,15.91,0,0,0,438.56,5.57L373.13,66.71A15.91,15.91,0,0,0,372.37,89.18Z"/><path class="cls-12" d="M329.84,51.76l-.09-.11s0,0,.05.05Z"/></g></g></svg>